            PLEASE BE PASSION BECAUSE MY UPLOAD SPEED IS SLO (150KBPS)

==============Super 8 (2011) 1080p BRD AUDIO HINDI-ENG 5.1 BY-GPSOFT===============

Format                           : Matroska
File size                        : 12.0 GiB
Duration                         : 1h 51mn
Overall bit rate                 : 15.4 Mbps
Movie name                       : Super 8 (2011) 1080p BRD AUDIO HINDI-ENG 5.1 BY-GPSOFT
Encoded date                     : UTC 2011-12-20 08:29:24
Writing application              : mkvmerge v5.0.1 (\\\'Es ist Sommer\\\') built on Oct  9 2011 11:55:43
Writing library                  : libebml v1.2.2 + libmatroska v1.3.0

Video
=======
ID                               : 1
Format                           : AVC
Format/Info                      : Advanced Video Codec
Format profile                   : High@L4.1
Format settings, CABAC           : Yes
Format settings, ReFrames        : 4 frames
Format settings, GOP             : N=1
Muxing mode                      : Header stripping
Codec ID                         : V_MPEG4/ISO/AVC
Duration                         : 1h 51mn
Bit rate                         : 13.5 Mbps
Width                            : 1 920 pixels
Height                           : 800 pixels
Display aspect ratio             : 2.40:1
Frame rate                       : 23.976 fps
Color space                      : YUV
Chroma subsampling               : 4:2:0
Bit depth                        : 8 bits
Scan type                        : Progressive
Bits/(Pixel*Frame)               : 0.365
Stream size                      : 10.3 GiB (85%)
Title                            : Super 8 (2011) 1080p BRD AUDIO HINDI-ENG 5.1 BY-GPSOFT

Audio #1
=========
ID                               : 2
Format                           : AC-3
Format/Info                      : Audio Coding 3
Mode extension                   : CM (complete main)
Muxing mode                      : Header stripping
Codec ID                         : A_AC3
Duration                         : 1h 51mn
Bit rate mode                    : Constant
Bit rate                         : 448 Kbps
Channel(s)                       : 6 channels
Channel positions                : Front: L C R, Side: L R, LFE
Sampling rate                    : 48.0 KHz
Bit depth                        : 16 bits
Compression mode                 : Lossy
Stream size                      : 358 MiB (3%)
Title                            : HINDI-DD5.1BY-GPSOFT
Language                         : Hindi (ORIGINAL)

Audio #2
=========
ID                               : 3
Format                           : DTS
Format/Info                      : Digital Theater Systems
Muxing mode                      : Header stripping
Codec ID                         : A_DTS
Duration                         : 1h 51mn
Bit rate mode                    : Constant
Bit rate                         : 1 510 Kbps
Channel(s)                       : 6 channels
Channel positions                : Front: L C R, Side: L R, LFE
Sampling rate                    : 48.0 KHz
Bit depth                        : 24 bits
Compression mode                 : Lossy
Stream size                      : 1.18 GiB (10%)
Title                            : ENG
Language                         : English (ORIGINAL)

Text
=====
ID                               : 4
Format                           : UTF-8
Codec ID                         : S_TEXT/UTF8
Codec ID/Info                    : UTF-8 Plain Text
Title                            : Sub
Language                         : English

Menu
=====
00:00:00.000                     : en:Chapter.01
00:07:01.504                     : en:Chapter.02
00:11:33.275                     : en:Chapter.03
00:19:25.164                     : en:Chapter.04
00:26:43.518                     : en:Chapter.05
00:33:36.514                     : en:Chapter.06
00:40:30.511                     : en:Chapter.07
00:45:42.156                     : en:Chapter.08
00:51:57.114                     : en:Chapter.09
00:56:59.958                     : en:Chapter.10
01:02:24.365                     : en:Chapter.11
01:08:12.505                     : en:Chapter.12
01:13:30.906                     : en:Chapter.13
01:18:33.875                     : en:Chapter.14
01:25:31.334                     : en:Chapter.15
01:30:25.378                     : en:Chapter.16
01:38:20.352                     : en:Chapter.17
01:43:37.836                     : en:Chapter.18

***********************************************************************************
                                 CLICK FOR SAMPLE IMAGE

       http://img403.imageshack.us/img403/4484/super820111080pbrdaudio.jpg

***********************************************************************************

                        
                          SAY THANKS IF U LIKE THIS \\\"GPSOFT\\\" POST


